# xmcd CD database file
#
# Track frame offsets:
#	150
#	33205
#	71482
#	93670
#	121287
#	150055
#
# Disc length: 2332 seconds
#
# Revision: 2
# Processed by: cddbd v1.5.2PL0 Copyright (c) Steve Scherf et al.
# Submitted via: CDex 1.70beta2
#
DISCID=3d091a06
DTITLE=Kenny Drew  - Undercurrent
DYEAR=1961
DGENRE=Jazz
TTITLE0=Undercurrent
TTITLE1=Funk_Cosity
TTITLE2=Lion's Den
TTITLE3=The Pot's On
TTITLE4=Groovin' The Blues
TTITLE5=Ballade
EXTD=YEAR: 1961
EXTT0=
EXTT1=
EXTT2=
EXTT3=
EXTT4=
EXTT5=
PLAYORDER=
